<svg width="20" height="19" viewBox="0 0 20 19" fill="none" xmlns="http://www.w3.org/2000/svg">
<path d="M3.87974 3.67139H16.7047C16.8937 3.67139 17.0749 3.7425 17.2086 3.86909C17.3422 3.99568 17.4172 4.16737 17.4172 4.34639V14.2464C17.4172 14.4254 17.3422 14.5971 17.2086 14.7237C17.0749 14.8503 16.8937 14.9214 16.7047 14.9214H3.87974C3.69077 14.9214 3.50954 14.8503 3.37592 14.7237C3.2423 14.5971 3.16724 14.4254 3.16724 14.2464V4.34639C3.16724 4.16737 3.2423 3.99568 3.37592 3.86909C3.50954 3.7425 3.69077 3.67139 3.87974 3.67139ZM15.9922 6.53204L10.3435 11.3245L4.59224 6.51719V13.5714H15.9922V6.53204ZM4.95632 5.02139L10.3357 9.51824L15.6374 5.02139H4.95632Z" fill="#818cf8"/>
</svg>
