<svg xmlns="http://www.w3.org/2000/svg" xmlns:xlink="http://www.w3.org/1999/xlink" width="500" zoomAndPan="magnify" viewBox="0 0 375 374.999991" height="500" preserveAspectRatio="xMidYMid meet" version="1.0"><defs><g/><clipPath id="0d845ac690"><path d="M 90.003906 90.003906 L 284.996094 90.003906 L 284.996094 284.996094 L 90.003906 284.996094 Z M 90.003906 90.003906 " clip-rule="nonzero"/></clipPath><clipPath id="166e86b862"><path d="M 187.5 90.003906 C 133.65625 90.003906 90.003906 133.65625 90.003906 187.5 C 90.003906 241.34375 133.65625 284.996094 187.5 284.996094 C 241.34375 284.996094 284.996094 241.34375 284.996094 187.5 C 284.996094 133.65625 241.34375 90.003906 187.5 90.003906 Z M 187.5 90.003906 " clip-rule="nonzero"/></clipPath></defs><g clip-path="url(#0d845ac690)"><g clip-path="url(#166e86b862)"><path fill="#d9d9d9" d="M 90.003906 90.003906 L 284.996094 90.003906 L 284.996094 284.996094 L 90.003906 284.996094 Z M 90.003906 90.003906 " fill-opacity="1" fill-rule="nonzero"/></g></g><g fill="#0369a1" fill-opacity="1"><g transform="translate(119.813943, 233.000916)"><g><path d="M 64.96875 -12.265625 L 28.734375 -12.265625 L 23.015625 0 L 6.125 0 L 47.671875 -89.625 L 87.171875 0 L 70.421875 0 Z M 58.15625 -27.65625 L 47.265625 -52.4375 L 35.828125 -27.65625 Z M 58.15625 -27.65625 "/></g></g></g><g fill="#0369a1" fill-opacity="1"><g transform="translate(185.862869, 233.000916)"><g><path d="M 59.109375 -11.03125 C 56.023438 -7.21875 52.300781 -4.3125 47.9375 -2.3125 C 43.488281 -0.226562 38.722656 0.8125 33.640625 0.8125 C 27.378906 0.8125 21.566406 -0.957031 16.203125 -4.5 C 10.847656 -7.945312 6.582031 -12.800781 3.40625 -19.0625 L 17.15625 -25.875 C 18.882812 -22.25 21.203125 -19.4375 24.109375 -17.4375 C 27.015625 -15.4375 30.191406 -14.4375 33.640625 -14.4375 C 39.816406 -14.4375 44.722656 -16.976562 48.359375 -22.0625 C 51.984375 -27.144531 53.796875 -34 53.796875 -42.625 L 53.796875 -89.625 L 69.0625 -89.625 L 69.0625 -42.625 C 69.0625 -29.375 65.742188 -18.84375 59.109375 -11.03125 Z M 59.109375 -11.03125 "/></g></g></g><g fill="#0369a1" fill-opacity="1"><g transform="translate(238.156669, 233.000916)"><g><path d="M 16.34375 0 C 14.34375 0 12.664062 -0.679688 11.3125 -2.046875 C 9.945312 -3.410156 9.265625 -5.085938 9.265625 -7.078125 C 9.265625 -8.984375 9.988281 -10.664062 11.4375 -12.125 C 12.800781 -13.488281 14.4375 -14.171875 16.34375 -14.171875 C 18.25 -14.171875 19.929688 -13.488281 21.390625 -12.125 C 22.742188 -10.664062 23.421875 -8.984375 23.421875 -7.078125 C 23.421875 -5.085938 22.742188 -3.410156 21.390625 -2.046875 C 20.023438 -0.679688 18.34375 0 16.34375 0 Z M 16.34375 0 "/></g></g></g></svg>